Coordinates
version=1
nRows=6
nColumns=63
inDegrees=yes

Units are S.I. units (second, meters, Newtons, ...)
If the header above contains a line with 'inDegrees', this indicates whether rotational values are in degrees (yes) or radians (no).

endheader
time	pelvis_tilt	pelvis_list	pelvis_rotation	pelvis_tx	pelvis_ty	pelvis_tz	hip_flexion_r	hip_adduction_r	hip_rotation_r	knee_angle_r	knee_angle_r_beta	ankle_angle_r	subtalar_angle_r	mtp_angle_r	hip_flexion_l	hip_adduction_l	hip_rotation_l	knee_angle_l	knee_angle_l_beta	ankle_angle_l	subtalar_angle_l	mtp_angle_l	L5_S1_Flex_Ext	L5_S1_Lat_Bending	L5_S1_axial_rotation	L4_L5_Flex_Ext	L4_L5_Lat_Bending	L4_L5_axial_rotation	L3_L4_Flex_Ext	L3_L4_Lat_Bending	L3_L4_axial_rotation	L2_L3_Flex_Ext	L2_L3_Lat_Bending	L2_L3_axial_rotation	L1_L2_Flex_Ext	L1_L2_Lat_Bending	L1_L2_axial_rotation	L1_T12_Flex_Ext	L1_T12_Lat_Bending	L1_T12_axial_rotation	Abs_r3	Abs_r2	Abs_r1	Abs_t1	Abs_t2	neck_flexion	neck_bending	neck_rotation	arm_flex_r	arm_add_r	arm_rot_r	elbow_flex_r	pro_sup_r	wrist_flex_r	wrist_dev_r	arm_flex_l	arm_add_l	arm_rot_l	elbow_flex_l	pro_sup_l	wrist_flex_l	wrist_dev_l
2.949153	-0.310670	0.306328	79.446621	0.273655	0.935202	0.583115	-1.049661	-0.692713	5.721737	9.261929	0.161651	37.176289	4.433666	0.000000	-3.639791	2.693870	-1.661141	7.319308	0.127746	35.162715	-7.444649	0.000000	0.032883	0.016002	2.057046	0.061067	0.021283	2.185611	0.054024	0.038908	2.185611	0.037582	0.038908	1.799915	0.030535	0.032632	1.671350	0.018789	0.024788	1.542785	0.234881	0.181023	11.440673	0.000000	0.000000	9.826339	-0.933449	-6.630649	11.741334	-4.754350	65.076186	28.750189	49.311203	6.291783	6.688791	20.834761	-2.277387	98.749412	34.264931	30.789951	-11.364227	-10.305130
2.966102	-0.345036	0.306456	79.493604	0.272988	0.935190	0.583109	-0.985553	-0.787823	5.312732	9.483220	0.165513	37.200539	4.724608	0.000000	-3.582591	2.754880	-1.757099	7.440167	0.129855	35.261515	-7.238613	0.000000	0.032588	0.016040	2.090925	0.060519	0.021333	2.221608	0.053538	0.038999	2.221608	0.037245	0.038999	1.829560	0.030261	0.032709	1.698877	0.018621	0.024846	1.568194	0.232771	0.181446	11.629099	0.000000	0.000000	9.844072	-0.960109	-6.966638	11.583038	-4.834317	64.275375	28.756808	50.281953	6.373520	6.663524	21.030293	-2.044905	99.059697	33.970061	30.766052	-11.200690	-10.337104
2.983051	-0.393364	0.273723	79.502816	0.272378	0.935139	0.583192	-0.849611	-0.897528	4.804566	9.766844	0.170464	37.262501	5.172842	0.000000	-3.489042	2.822910	-1.884342	7.559915	0.131945	35.331587	-7.046182	0.000000	0.033754	0.017394	2.103262	0.062684	0.023133	2.234716	0.055454	0.042291	2.234716	0.038577	0.042291	1.840354	0.031344	0.035469	1.708901	0.019287	0.026943	1.577447	0.241101	0.196759	11.697714	0.000000	0.000000	9.910119	-1.040169	-7.062692	11.517449	-4.864787	63.767228	28.703080	51.091364	6.512251	6.654091	21.109110	-1.889364	98.946491	33.733755	30.802773	-11.031728	-10.438661
3.000000	-0.455550	0.233427	79.482130	0.271835	0.935088	0.583323	-0.683229	-1.022964	4.241123	10.085070	0.176018	37.355456	5.724415	0.000000	-3.387555	2.903790	-2.039810	7.675012	0.133954	35.385702	-6.871936	0.000000	0.034234	0.017634	2.103702	0.063577	0.023453	2.235184	0.056244	0.042875	2.235184	0.039127	0.042875	1.840740	0.031790	0.035959	1.709258	0.019562	0.027315	1.577777	0.244533	0.199476	11.700161	0.000000	0.000000	9.942223	-1.157399	-7.076236	11.509111	-4.875191	63.522545	28.633881	51.676535	6.625184	6.532695	21.118944	-1.811099	98.546051	33.568034	30.977706	-10.894825	-10.561826
3.016949	-0.528406	0.168743	79.420362	0.271360	0.935011	0.583525	-0.453905	-1.161244	3.603929	10.462875	0.182612	37.496182	6.425286	0.000000	-3.258734	2.993516	-2.218193	7.780784	0.135800	35.407451	-6.752249	0.000000	0.035690	0.018687	2.083711	0.066280	0.024854	2.213943	0.058635	0.045437	2.213943	0.040790	0.045437	1.823247	0.033142	0.038107	1.693015	0.020393	0.028947	1.562783	0.254929	0.211395	11.588974	0.000000	0.000000	9.984263	-1.328881	-6.851052	11.602444	-4.848016	63.646594	28.518670	52.002299	6.780167	6.411744	21.007249	-1.825719	97.738054	33.486782	31.252833	-10.767687	-10.743024
3.033898	-0.616794	0.099008	79.339302	0.270971	0.934946	0.583739	-0.215029	-1.302922	3.099779	10.840502	0.189202	37.604739	6.967370	0.000000	-3.136781	3.094232	-2.407472	7.852513	0.137052	35.412826	-6.605155	0.000000	0.037495	0.015406	2.069376	0.069633	0.020490	2.198712	0.061601	0.037458	2.198712	0.042853	0.037458	1.810704	0.034818	0.031416	1.681368	0.021425	0.023864	1.552032	0.267826	0.174276	11.509248	0.000000	0.000000	10.024550	-1.493374	-6.753555	11.664069	-4.798538	63.647146	28.389160	52.573359	6.898992	6.250011	20.934239	-1.851238	97.081712	33.408205	31.422996	-10.780551	-10.991709
